<svg id="svgIcons" xmlns="http://www.w3.org/2000/svg" xmlns:xlink="http://www.w3.org/1999/xlink" style="display:none;">

  <symbol id="layer-up" viewBox="0 0 19 24">
    <path d="M5 24l0 -2 9 0 0 2 -9 0zm0 -4l0 -8 -5 0 9 -12 10 12 -5 0 0 8 -9 0z"/>
  </symbol>

  <symbol id="layer-down" viewBox="0 0 22 28">
    <path d="M5 0l0 3 11 0 0 -3 -11 0zm0 4l0 10 -5 0 11 14 11 -14 -6 0 0 -10 -11 0z"/>
  </symbol>

  <symbol id="layer-delete" viewBox="0 0 42 42">
    <path d="M38 1c0,-1 2,-1 3,0 1,0 1,2 0,3l-17 17 17 17c1,0 1,2 0,3 -1,1 -3,1 -3,0l-17 -17 -17 17c-1,1 -3,1 -3,0 -1,-1 -1,-3 0,-3l16 -17 -16 -17c-1,-1 -1,-3 0,-3 0,-1 2,-1 3,0l17 16 17 -16z"/>
  </symbol>

  <symbol id="layer-duplicate" viewBox="0 0 414 414">
    <path d="M207 0c18,0 33,15 33,33l0 141 141 0c19,0 33,15 33,33 0,18 -15,33 -33,33l-141 0 0 141c0,19 -15,33 -33,33 -18,0 -33,-15 -33,-33l0 -141 -141 0c-18,0 -33,-15 -33,-33 0,-18 15,-33 33,-33l141 0 0 -141c0,-18 15,-33 33,-33z"/>
  </symbol>

  <symbol id="rotate-ccw" viewBox="0 0 196 178">
    <path d="M196 140c0,-54 -43,-97 -96,-97l-19 0 0 -43 -81 63 81 63 0 -44 19 0c32,0 57,26 57,58l0 38 39 0 0 -38z"/>
  </symbol>

  <symbol id="rotate-cw" viewBox="0 0 263 239">
    <path d="M0 187c0,-71 58,-129 129,-129l26 0 0 -58 108 84 -108 84 0 -58 -26 0c-42,0 -77,35 -77,77l0 52 -52 0 0 -52z"/>
  </symbol>

  <symbol id="layer-reset" viewBox="0 0 686 573">
    <path d="M343 0c108,0 202,59 250,147l93 -18 -99 196 -165 -144 75 -15c-36,-45 -92,-75 -154,-75 -83,0 -154,52 -182,126l-87 -31c41,-109 146,-186 269,-186zm0 573c-108,0 -202,-59 -251,-147l-92 18 99 -196 165 144 -75 15c36,46 91,75 154,75 83,0 154,-52 182,-126l86 31c-40,109 -145,186 -268,186z"/>
  </symbol>

</svg>
